<?xml version="1.0" encoding="UTF-8"?>
<svg xmlns="http://www.w3.org/2000/svg" version="1.1" viewBox="0 0 222.8 327.6">
  <defs>
    <style>
      .cls-1 {
        fill: #273940;
      }

      .cls-2 {
        fill: #fff;
      }

      .cls-3 {
        fill: #f4e22a;
      }
    </style>
  </defs>
  <!-- Generator: Adobe Illustrator 28.6.0, SVG Export Plug-In . SVG Version: 1.2.0 Build 709)  -->
  <g>
    <g id="_レイヤー_1" data-name="レイヤー_1">
      <path class="cls-2" d="M206.3,180.5c5.8,14.1,10.6,31.3,12.4,44.8,2.8,20.6,2.2,38.5-1.8,50.3-4.1,11.9-10.1,20.2-21.6,28.2-1.6,1.1-3.5,1.7-5.4,1.8-1.8,0-3.6.1-5.3-1.9l-66.3,17c-22.2,5.4-53.3,4.9-70.2-1.5-7.2-3.1-12.5-6.4-16.1-12.1-2.6-4.1-4.5-8.6-5.4-13.3-6.5-1.9-12.6-5.1-17.8-9.5-7.1-6.9-7.8-21.7-4.2-37.2,5.8-25.4,6.6-37.8,10.6-56.6,2.3-10.9,6.5-20.4,15.1-28.3,8.1-7.4,23.3-15.4,39.4-21.6h.2c3.4,6.3,8.7,9.8,14.8,12,5.8,2.1,12,2.4,18,1.9,15.9-1.3,31.9-8.8,44.4-19.7,16.3,3.9,36.4,11.1,47.8,24.7,3.9,4.7,7.9,12.2,11.5,21Z"/>
      <path class="cls-2" d="M13.6,277.1c1-.9,2.2-1.6,3.5-2.1l10.2-3.9c0,.3-.1.6-.2.9-2.1,13-2.5,23.6,4.8,35.1,2.8,4.5,6.8,7.5,11.8,10.1-.7,1.6-1.4,3-1.4,3-1,2.5-4.5,3.3-7.7,2.6-2.2-.5-8.9-5-12.3-8.7-2.8-3-5.2-6.2-7.2-9.8-2.5-5.1-5.1-10.3-5.6-16-.4-4.3.8-8.5,4-11.2Z"/>
      <path class="cls-2" d="M167.4,268.6c-2.6-.4-5.2-.6-7.9-.4-5.8.2-11.6.8-17.4,1.7-4.9.8-5.2,2.5-5.1,6.1.1,3.3,6.2,5.2,10.3,5.4h2.3c-5.4,2.5-10.9,4.7-16.4,5.8-7.4,1.5-9.1,4.3-9.1,6.7s1.4,3,3.7,3.4c-1.3.2-2.3.3-2.3.3-4.3.6-7.8,2.4-7.6,6.1.2,3.7,4.7,4.1,7.7,4-2.3.6-4.2,1.9-4,4.8,0,2,1.9,4,5,3.7l7.1-.7-3.4.6c-2.4.5-4,2-4,4.2,0,1.6.9,3.1,2.3,3.9,2.5,1,5.5.8,8.1.8,6,0,12-.4,17.9-1.5,2.2-.6,5.3-1.5,7.1-2.8,4.4-3.2,21.5-15,22.6-19.2,0,0,1.4-.6,3.1-1.3-.5-9-3.7-17.8-9.4-27.5-1.1-1.9-2.7-3.5-4.5-4.8l-3.4,1.6c-1-.5-2-.9-3.1-1.1Z"/>
      <g>
        <path class="cls-2" d="M140.4,77.7c1.6-1.1,3.7-1.6,5.6-1.3,3.9.6,5.3,2.7,5.9,4,1.7,3.7.9,10.2-1,14-1.6,3.7-4.3,6.9-7.7,9.1-2.4,1.3-5.1,1.9-7.8,1.7l-.2,1.1c-.7,2.5-1.8,4.9-3.1,7.2-.6,1.1-1.2,2.2-1.9,3.2.5,2.3.7,3.1,1.2,5,.4,1.9.9,3.8,1.7,5.5,2.6,5.5,8.1,5.8,13.6,7.9-12.5,10.8-28.4,18.2-44.2,19.5-6,.5-12.2.2-18-1.9-6.1-2.2-11.4-5.8-14.8-12.1,1.9-.7,3.6-1.9,5-3.4,0,0,0,0,0,0-6.3-.9-12.2-3.7-16.7-8.2-7.6-7.4-10.8-19.2-12.2-31.5-.8-7.1-1.5-14.8-2.6-22.4,0,0-10.8-33.4,41.2-34.3,59.1-1.1,55.9,37,55.9,37Z"/>
        <path class="cls-3" d="M140.7,18.8c.3.2.5.4.8.6,7.3,6.7,11,14.4,13.5,23.8,1.3,4.8,1.8,9.8,1.6,14.8-.3,5.2-.7,16.8-4.2,23.7l-.6-1.3c-.6-1.2-2-3.4-5.9-4-1.5-.2-3,0-4.4.6-.9.4-1.9.7-2.9.7-.2,0-.4,0-.6,0-2.8-.2-4.5-1.5-6.4-3.5-1-1-1.9-2.1-2.7-3.2h0c-11.1-18.6-25.5-23.2-28.6-24.3l-9.7-1.2c-10.5,2.6-19.8,11-24.7,14.1-.8.5-1.9.2-2.4-.7-.2-.3-.3-.7-.2-1.1,0-1.1,0-2.2-.4-3.3-.4-1.4-1.5-1.9-2.3-1.4-6.9,4.1-16.2,18.3-16.9,23.4,0,0,0,.7-.3,1.7-2-9.9-2.3-20-1-30,1.4-8.7,5.4-18.6,10.9-25.4C63.1,11.1,77.7,3.8,96,2.6c11.6-.8,23.2,1.2,35.8,9.8l8.9,6.4Z"/>
      </g>
      <path class="cls-1" d="M16.5,272.7c-4.6,1.8-8,5.8-8.9,10.6-1.1,5.8.7,11.5,3,16.7,1.1,2.7,2.4,5.2,3.9,7.7,1.6,2.4,3.3,4.7,5.2,6.8,3.2,3.7,7,6.8,11.3,9.2,1.9,1.2,4.1,1.8,6.4,1.8,2.8-.1,5.9-1.3,7.2-4,.6-1.1.3-2.6-.9-3.3-1.1-.7-2.6-.3-3.3.9-.7,1.4-2.3,1.7-3.8,1.6-1.7,0-2.2-.5-3.6-1.3-3.5-2-6.6-4.5-9.3-7.5-3.1-3.5-5.7-7.4-7.7-11.6-2-4.2-4-8.9-3.9-13.7,0-4,2-7.7,5.8-9.3,1.3-.4,2-1.7,1.7-3-.4-1.3-1.7-2-3-1.7h0Z"/>
      <path class="cls-1" d="M23.1,308.8c2,1.1,4.2,1.9,6.5,2.1.7,0,1.5,0,2.3,0,.9,0,1.8-.4,2.4-1,.6-.5,1-1.2,1.2-2,.4-1.3-.4-2.6-1.7-3-1.3-.4-2.6.4-3,1.7-.1.4.1-.2.1-.2,0,0-.3.5,0,0,.1-.1.3-.2.4-.3.1,0,.9-.1.5-.1,0,0-.1,0-.2,0-.2,0-.3,0-.5,0-.3,0-.6,0-.9,0-.2,0-.3,0-.5,0-.2,0-.8-.1,0,0-.7-.1-1.4-.3-2.1-.5-.2,0-.4-.1-.6-.2,0,0-.4-.2,0,0,.4.2,0,0-.1,0-.5-.2-.9-.4-1.3-.7-1.1-.7-2.6-.3-3.3.9-.7,1.1-.3,2.6.9,3.3h0Z"/>
      <path class="cls-1" d="M128.1,118.2c1,4.5,1.7,9.7,4.9,13.2,2.8,3,6.9,4,10.7,5.2,1.3.4,2.6-.4,3-1.7s-.4-2.6-1.7-3c-1.7-.5-3.5-1-5.1-1.7-.4-.2,0,0-.1,0-.2,0-.4-.2-.6-.3-.4-.2-.7-.4-1-.6-.2-.1-.4-.2-.5-.4-.4-.3.2.2-.2-.2-.3-.3-.6-.5-.9-.8-.1-.1-.3-.3-.4-.4.3.3-.2-.3-.2-.3-.3-.4-.5-.8-.7-1.2-.4-1-.8-2-1-3-.5-2.1-1-4.2-1.5-6.2-.4-1.3-1.7-2-3-1.7s-2,1.7-1.7,3h0Z"/>
      <path class="cls-1" d="M139.4,20.8c6.5,5.8,10.5,13.2,12.9,21.6,1.5,5.1,2.2,10.4,1.9,15.7-.2,3.4-.4,6.7-.7,10-.5,4.2-1.3,8.7-3.2,12.6-1.4,2.7,2.7,5.2,4.1,2.4,3.7-7.3,4.2-16.1,4.6-24.1.5-10.1-1.8-20.2-6.5-29.2-2.5-4.6-5.7-8.8-9.7-12.3-2.3-2.1-5.7,1.3-3.4,3.4h0Z"/>
      <path class="cls-1" d="M99.7,49c1,.4,1.9.7,2.9,1.1,0,0,.1,0,.2,0,.3.1-.4-.2-.1,0,.2,0,.3.1.5.2.4.2.8.4,1.2.6.9.4,1.7.9,2.6,1.3,4.6,2.6,8.9,6,12.4,9.9,2.8,3.1,5.3,6.5,7.5,10.1,1.6,2.6,5.7.2,4.1-2.4-6.1-10.2-14.9-19.1-26-23.8-1.3-.6-2.7-1.1-4.1-1.6-1.3-.3-2.6.4-3,1.7-.3,1.3.4,2.6,1.7,3h0Z"/>
      <path class="cls-1" d="M46,77.3c.2-1.3.7-2.6,1.3-3.8.9-1.8,1.9-3.6,3-5.3,2.4-3.8,5.2-7.3,8.4-10.4.6-.6,1.4-1.3,1.9-1.6.4-.2.7-.4,1-.7.3-.3,1,.1-.7,0-.6,0-.2-.5-.2,0,0,.5.2,1,.3,1.5,0,.7,0,1.3,0,2,.3,1.5,1.4,2.7,2.9,3.2,2.3.7,4.2-1,5.9-2.3,1.8-1.3,3.5-2.6,5.3-3.8,5-3.5,10.2-6.7,16.2-8.2,3-.8,1.7-5.4-1.3-4.6-5.6,1.6-10.8,4.1-15.5,7.4-2.1,1.4-4,2.8-6,4.3-.8.6-1.6,1.2-2.4,1.7-.3.2-.7.4-1,.7s-.4,0-.2.2c-.1,0,1.1.1.8.4.2-.1,0-1.2,0-1.3,0-.7-.2-1.5-.4-2.2-.3-1.6-1.4-3-2.9-3.6-2.4-.8-4.6,1.2-6.2,2.7-3.5,3.2-6.5,6.8-9.1,10.8-1.4,2-2.6,4.2-3.8,6.3-.9,1.7-1.6,3.4-2,5.3-.3,1.3.4,2.6,1.7,3,1.3.3,2.6-.4,3-1.7h0Z"/>
      <path class="cls-1" d="M92.8,89c-.7-2.5,0-8.2,4.7-8.5,6.2.2,6.3,7.1,4.1,10.3-1.8,2.6-6.8,3.6-8.8-1.8Z"/>
      <path class="cls-1" d="M55.9,89.1c-.6-2.5,0-8.2,4.3-8.6,5.7.2,5.8,7.1,3.8,10.3-1.6,2.6-6.3,3.6-8.1-1.8Z"/>
      <path class="cls-1" d="M75.2,94.8c-.8,1.4-1.6,2.7-2.2,4.2-.4.7-.6,1.5-.7,2.3,0,1,.4,1.9,1.1,2.6.6.5,1.3,1,2.1,1.2.5.1,1,.2,1.5.2h-.6c0,0,0,0,0,0,.6.1,1.3,0,1.8-.2,1.1-.7,1.5-2.1.9-3.3,0,0,0,0,0,0-.3-.5-.8-.9-1.4-1.1-.4,0-.9,0-1.3-.2h.6c-.2,0-.4,0-.6,0l.6.2c-.2,0-.4-.2-.5-.3l.5.4c-.2-.1-.3-.2-.4-.4l.4.5s0,0,0-.2l.2.6c0,0,0-.2,0-.2v.6c0,0,0-.2,0-.3v.6c0-.2,0-.4.1-.7l-.2.6c.7-1.5,1.5-3.1,2.4-4.5.7-1.1.3-2.6-.9-3.3-1.1-.7-2.6-.3-3.3.9h0Z"/>
      <path class="cls-1" d="M133,10.3C124.4,4.3,114.2.8,103.7.1c-9.7-.5-19.3,1-28.4,4.4-8.3,3.1-15.8,8.1-21.9,14.6-6.7,7.6-11.2,16.8-13.1,26.8-2.2,11-1.6,22.9.8,33.8.7,3,5.3,1.7,4.6-1.3-2.1-9.3-2.5-19-1.3-28.5,1.2-8.9,4.7-18.3,10.5-25.3,11-13.4,28-19.7,45.1-19.8,10.9,0,21.5,3.4,30.4,9.6,2.6,1.7,5-2.4,2.4-4.1h0Z"/>
      <path class="cls-1" d="M99.1,74.3c2.1,1.1,4.2,2,6.3,2.9,1.3.4,2.6-.4,3-1.7.2-.6,0-1.3-.2-1.9-.3-.5-.8-.9-1.4-1.1-.4-.2-.8-.3-1.3-.5l.6.2c-1.5-.6-3-1.4-4.5-2.1-.6-.3-1.2-.4-1.8-.2-1.3.3-2,1.7-1.7,2.9,0,0,0,0,0,0,.2.6.6,1.1,1.1,1.4h0Z"/>
      <path class="cls-1" d="M113.9,85.4c-.2,2.1-.3,4.3-.3,6.4,0,1.9,0,4.2,1.2,5.8,1.4,1.9,3.8,2.7,6.1,2.2,2.3-.4,3.7-2.3,4.5-4.3.4-1.3-.4-2.6-1.7-3,0,0,0,0,0,0-1.3-.3-2.6.4-3,1.7.3-.6-.1.2-.2.4,0,0,0,.1-.1.2.2-.2.2-.3.1-.2,0,0-.2.2-.3.3-.3.3.4-.2,0,0,0,0-.5.2-.2,0,.3,0-.1,0-.2,0-.5.2.5,0,0,0,0,0-.5,0-.5,0,0,0,.5.1,0,0,0,0-.4,0-.4-.1.3.1.3.2.2,0,0,0-.1,0-.2-.1-.4-.2.2.2,0,0,0,0-.1-.1-.2-.2.2.3.2.3.1.2-.3-.3,0,0,0,0,0-.2,0-.3-.2-.5,0-.1,0-.3,0-.4,0-.5,0,0,0,0-.1-.1,0-1.1-.1-1.2,0-.8,0-1.7,0-2.5,0-1.7.1-3.4.3-5,0-1.3-1.1-2.4-2.4-2.4-1.3,0-2.4,1.1-2.4,2.4h0Z"/>
      <path class="cls-1" d="M143.8,136.6c13.8,3.1,27.8,7.6,39.5,15.7,2.8,2,5.4,4.2,7.8,6.7,1.9,2,3.6,4.1,5,6.4,3.4,5.5,6.2,11.2,8.5,17.2,5.6,13.7,9.5,28,11.7,42.6,1.3,8.7,1.8,17.4,1.7,26.2,0,7-.9,14.1-2.6,20.9-1.7,6.4-4.7,12.4-8.6,17.7-2.1,2.7-4.5,5.2-7.2,7.5-1.4,1.2-2.9,2.4-4.5,3.5-1.4,1.2-3.2,2-5,2.2-1.6,0-2.7,0-3.9-1.2-2.1-2.3-5.5,1.1-3.4,3.4,3,3.3,8.1,3.2,11.9,1.5,1.9-1,3.7-2.2,5.3-3.6,1.6-1.2,3.1-2.5,4.5-3.8,5.3-4.9,9.6-10.9,12.5-17.6,6.4-14.7,6.6-31.2,5.2-46.9-1.5-16.2-5-32.1-10.5-47.4-4.5-12.7-10-26.2-20.4-35.3-11.5-10.1-26.6-15.7-41.2-19.4-1.6-.4-3.3-.8-4.9-1.2-3-.7-4.3,4-1.3,4.6h0Z"/>
      <path class="cls-1" d="M68.2,142.7c6.1,10.2,17.9,14.5,29.4,14.5,11.9,0,23.6-3.4,34.1-8.9,6-3.2,11.6-7,16.7-11.5.9-.9.9-2.5,0-3.4-.9-.9-2.4-.9-3.4,0-8.3,7.2-18,12.7-28.5,16-10.3,3.2-22.1,4.6-32.4.6-4.9-1.8-9.1-5.3-11.8-9.7-1.6-2.6-5.7-.2-4.1,2.4h0Z"/>
      <path class="cls-1" d="M73.1,135.5c-.7.7-1.5,1.4-2.3,2-1.4.8-2.9,1.5-4.5,2-3.4,1.4-6.8,2.8-10.1,4.3-6.2,2.8-12.2,6-17.9,9.6-4.8,3-9.3,6.6-13.1,10.8-4,4.7-7.2,10-9.4,15.8-1.9,5.4-3.3,11-4.2,16.7-1,5.1-1.8,10.1-2.6,15.2-2,12-4.3,23.9-6.9,35.7-1.6,7.2-2.5,14.8-1.7,22.1.6,6,2.4,12.1,6.7,16.5,2.2,2.2,5.6-1.2,3.4-3.4-3.3-3.3-4.7-8.1-5.3-12.7-.6-6.2-.3-12.4.9-18.5,1.3-6.7,2.9-13.3,4.2-20,1-5.3,1.9-10.5,2.8-15.8.8-4.9,1.6-9.8,2.5-14.6.9-5.5,2.1-10.9,3.6-16.2,1.6-5.4,4.2-10.5,7.5-15,3.4-4.3,7.5-8,12.1-11,6.1-4,12.4-7.5,19-10.5,3.5-1.6,7.1-3.2,10.7-4.6,1.7-.6,3.4-1.3,5-2.3,1.1-.8,2.1-1.6,3-2.6,2.3-2.1-1.1-5.5-3.4-3.4h0Z"/>
      <path class="cls-1" d="M78.6,119c.2-.1.4-.2.6-.3.3-.1,0,0,0,0,.1,0,.2,0,.4-.1.5-.2,1.1-.3,1.6-.5.3,0,.5-.1.8-.2,0,0,.5,0,.2,0s.2,0,.2,0c.6,0,1.2,0,1.8,0,.6,0,1.1,0,1.7,0,.3,0,.2,0,0,0,.1,0,.3,0,.4,0,.2,0,.5,0,.7.2s.5.1.7.2c0,0,.6.2.3.1-.2,0,.2,0,.3.1.6.3,1.3.6,1.9.9,1.1.6,2.6.3,3.3-.9.5-1,.4-2.8-.9-3.3-1.4-.7-2.8-1.3-4.3-1.8-1.3-.3-2.7-.5-4.1-.5-2.8,0-5.5.6-8,1.8-1.1.7-1.5,2.1-.9,3.3.7,1.1,2.1,1.5,3.3.9h0Z"/>
      <path class="cls-1" d="M168.3,268.3c2.9.6,5.4,2.2,7.2,4.5,1.1,1.6,2.1,3.3,2.9,5,.9,1.7,1.7,3.4,2.5,5.1,2.8,6.2,4.4,12.9,4.5,19.7,0,3.1,4.8,3.1,4.8,0-.2-7.8-2-15.5-5.3-22.5-1.7-3.8-3.6-7.8-6.3-11-2.4-2.7-5.6-4.6-9.1-5.5-3-.7-4.3,3.9-1.3,4.6Z"/>
      <path class="cls-1" d="M164.9,208.9c5.4,14.7,8.9,31.2,2.7,46.2-.3,1.3.4,2.6,1.7,3,1.3.3,2.6-.4,3-1.7,6.5-15.7,3-33.4-2.7-48.8-.4-1.3-1.7-2-3-1.7-1.3.4-2,1.7-1.7,3h0Z"/>
      <path class="cls-1" d="M182.4,300.9c-.2.7.3-.3,0,.2-.1.2-.3.4-.4.6-.3.5.2-.2-.3.4-.3.3-.5.6-.8.9-1.3,1.3-2.6,2.6-4.1,3.8-3.2,2.7-6.5,5.2-9.9,7.6-1.4,1-2.8,2-4.2,3-1.4,1.1-2.8,2-4.4,2.7-5.7,2.1-12.2,2.4-18.3,2.6-1.8,0-3.5,0-5.3,0-1.4,0-3.4.2-4.7-.6-.6-.5-1-1.2-.9-2,.2-1,1.2-1.4,2.2-1.6,3-.6,1.7-5.3-1.3-4.6-3.2.7-5.8,3.1-5.8,6.5,0,1.7.7,3.3,1.8,4.5,1.2,1.3,2.9,2.1,4.7,2.2,3.7.4,7.4.5,11.1.2,3.7-.2,7.5-.5,11.2-1.1,3.3-.4,6.5-1.4,9.5-2.9,1.5-.9,2.9-1.9,4.2-2.9,4-2.8,7.9-5.7,11.7-8.8,1.9-1.5,3.8-3.2,5.6-4.9,1.4-1.2,2.5-2.8,3.1-4.5.8-3-3.8-4.3-4.6-1.3h0Z"/>
      <path class="cls-1" d="M147.4,279c-2.4-.2-5.5-.8-7.3-2.3-.2-.2-.4-.3-.6-.6.2.3-.3-.5-.1-.2,0,0,0,0,0-.1,0-.4,0-.7,0-1.1,0-.2,0-.5,0-.7,0-.3,0,0,0,0,0-.1,0-.3,0-.4,0-.2,0-.6,0-.2,0,0,0-.2.1-.3.2-.3-.4.4,0,0,.3-.3-.2,0,.2-.1,0,0,.6-.3.3-.2.7-.3,1.4-.5,2.2-.6,1.7-.3,3.4-.5,5.1-.7,3.7-.5,7.4-.8,11.1-.9,3.3,0,7.7-.4,10.6,1.2,2.7,1.5,5.1-2.7,2.4-4.1-3.7-2-8.3-1.9-12.3-1.8-4.4.1-8.9.5-13.3,1.1-3.4.5-8.2.5-10.4,3.7-1.7,2.8-1.5,6.3.4,8.9,2.6,3.1,7.5,4.1,11.3,4.3,1.3,0,2.4-1.1,2.4-2.4,0-1.3-1.1-2.4-2.4-2.4h0Z"/>
      <path class="cls-1" d="M151,278.3c-4.8,2.2-9.7,4.1-14.7,5.7-4,1.1-8.4,1.5-11.7,4.3-2.1,1.7-3.1,4.4-2.5,7.1.7,2,2.3,3.5,4.3,4,1.9.6,4,.3,6,0,5.2-.5,10.4-1.4,15.5-2.7,3-.8,1.7-5.4-1.3-4.6-3.9,1.1-7.8,1.8-11.8,2.3-1.7.2-3.3.3-5,.4-1.1,0-2.7,0-3.1-.8.2.4,0-.8,0-.4s0-.2,0-.3c0-.3.3-.6,0-.2,0-.2.2-.4.3-.5.3-.4-.1,0,.2-.2.2-.2.4-.4.5-.5.1-.1.3-.2.4-.3,3.1-2,7.1-2.2,10.5-3.2,5-1.6,9.9-3.6,14.7-5.8,1.1-.7,1.5-2.1.9-3.3-.7-1.1-2.1-1.5-3.3-.9h0Z"/>
      <path class="cls-1" d="M125.1,295.3c-3.6.5-7.5,2-8.9,5.6-1.3,3.3.4,7,3.7,8.3.1,0,.2,0,.3.1,2.5,1,5.5.8,8.1.6,3.4-.3,6.7-.6,10-1.1,3.9-.5,7.7-1,11.5-1.7,1.3-.4,2-1.7,1.7-3-.4-1.3-1.7-2-3-1.7-5.6,1.1-11.4,1.8-17.1,2.4-2.2.3-4.5.4-6.8.4-1.1,0-2.2-.1-3.2-.5-.5-.1-.9-.6-1-1.1-.1-.9.3-1.8,1.1-2.3,1.4-.8,3-1.3,4.7-1.4,1.3-.4,2-1.7,1.7-3-.4-1.3-1.7-2-3-1.7h0Z"/>
      <path class="cls-1" d="M150.8,312c-6.2.7-12.5,1.5-18.7,1.8-1.4,0-2.7,0-4.1.1-1,0-2.3.2-3.1-.4-.6-.4-.8-1.2-.5-1.9.2-.8.9-1.1,1.8-1.4,2.9-1,1.7-5.6-1.3-4.6-3.6,1.2-6.3,4.4-5.2,8.4.5,1.6,1.5,3,3,3.8,1.8,1,3.7.9,5.6.9,7.5-.2,15-.8,22.5-1.8,1.3,0,2.4-1.1,2.4-2.4,0-1.3-1.1-2.4-2.4-2.4h0Z"/>
      <path class="cls-1" d="M121.3,127.8c4.1-2.2,7.7-5.3,10.5-9,1.2-1.6,2.2-3.4,3.1-5.2,1.2-2.1,2.1-4.3,2.7-6.6.3-1.3-.4-2.6-1.7-3-1.3-.3-2.6.4-3,1.7-.5,2-1.3,3.8-2.3,5.6-.9,1.7-1.8,3.3-2.9,4.8-2.4,3.1-5.4,5.7-8.9,7.5-2.7,1.5-.3,5.6,2.4,4.1h0Z"/>
      <path class="cls-1" d="M82.9,134.8c-9.8,1.1-20-2.6-25.9-10.8-6-8.3-7.8-18.8-8.9-28.8-.8-6.9-1.5-13.9-2.4-20.8-.4-1.3-1.7-2-3-1.7-1.3.4-2,1.7-1.7,3,.9,6.3,1.5,12.7,2.2,19.1.5,5.8,1.5,11.5,3,17.1,2.9,10.3,8.7,19.9,18.7,24.7,5.6,2.7,11.8,3.7,18,3.1,1.3,0,2.4-1.1,2.4-2.4,0-1.3-1.1-2.4-2.4-2.4h0Z"/>
      <path class="cls-1" d="M141.6,79.8c2.3-1.5,5.4-1.3,7.4.6,0,0,.2.2.2.3,0,0-.2-.3,0,0,.1.2.3.4.4.6.2.4.4.8.5,1.2.4,1.5.5,3,.3,4.4-.3,5.6-3.4,11.7-8.4,14.6-1.1.6-2.3,1-3.6,1.2-1.6.4-3.2.3-4.7-.3-1.1-.6-2.6-.3-3.3.9-.7,1.1-.3,2.6.9,3.3,3.9,1.8,8.3,1.2,12.1-.5,3.5-1.6,6.3-4.8,8.2-8.1,2-3.3,3.1-7,3.4-10.8.3-3.5-.2-7.4-2.6-10.1-3.5-3.6-9.1-4.2-13.3-1.5-2.5,1.7-.1,5.9,2.4,4.1h0Z"/>
      <path class="cls-1" d="M108.9,130.1c-.2.2-.4.3-.6.5-.1.1-.2.2-.4.3-.3.2.3-.2,0,0-.4.3-.9.6-1.3.9s-1,.6-1.4.8c-.2.1-.5.2-.7.3-.1,0-.2.1-.4.2-.3.2.5-.2,0,0-1.1.4-2.2.8-3.3,1-.6.1-1.2.3-1.8.4-.1,0-.3,0-.4,0-.5,0,.1,0-.1,0-.3,0-.7,0-1,.1-1.3,0-2.4,1.1-2.4,2.4,0,1.3,1.1,2.4,2.4,2.4,5.5-.5,10.8-2.3,14.9-6.1.9-.9.9-2.5,0-3.4-.9-.9-2.4-.9-3.4,0h0Z"/>
      <path class="cls-1" d="M45.3,194.2c-3.6,5.5-5.8,11.9-7.3,18.3-1.6,5.9-2.4,12.1-2.4,18.2,0,2.2.2,4.8,1.5,6.7,1.7,2.6,5.8.2,4.1-2.4,0-.1-.1-.2-.2-.4-.3-.4.1.4,0,0s-.2-.7-.3-1.1c0-.2,0-.4-.1-.6,0-.1,0-.2,0-.4,0,0,0,.4,0,.2,0-.5,0-1-.1-1.6,0-2.5,0-5.1.4-7.6.8-6.2,2.2-12.3,4.4-18.1,1.1-3.1,2.5-6,4.3-8.8,1.7-2.6-2.5-5-4.1-2.4h0Z"/>
      <path class="cls-1" d="M37.1,236.6c-5.6,10.5-9.7,21.7-12,33.4-2.1,11.2-2.8,22.8,2,33.4,2.2,5.1,5.7,9.6,10.2,12.9,4.2,3,8.8,5.2,13.7,6.6,9.9,3,20.4,3.9,30.7,4,12.5.3,25-1,37.1-3.8,3-.7,1.7-5.4-1.3-4.6-10.2,2.4-20.6,3.6-31,3.6-10.1.3-20.2-.6-30.1-2.8-8.9-2.1-18.1-6.1-23-14.2-2.8-4.5-4.5-9.6-5-14.8-.4-5.4,0-10.8.8-16.2,2-12.3,6.1-24.1,12-35.1,1.4-2.7-2.7-5.2-4.1-2.4h0Z"/>
    </g>
  </g>
</svg>