<?xml version="1.0" encoding="UTF-8"?>
<svg id="_レイヤー_1" data-name="レイヤー_1" xmlns="http://www.w3.org/2000/svg" viewBox="0 0 163.14 157.1">
  <defs>
    <style>
      .cls-1 {
        fill: #122939;
      }

      .cls-2 {
        fill: #ffeb00;
      }

      .cls-3 {
        fill: #fff;
      }
    </style>
  </defs>
  <g>
    <path class="cls-2" d="M145.02,48.14c-5.19-4.55-11.02-.29-13.5,2.35-2.76,2.93-5.9,9.85-13.87,11.55-6.7,1.43-15.48-.95-18.76-11.98-2.43-8.17,2.19-21.58,16.92-21.29,11.87.24,20.67,2.65,22.37-6.77,1.83-10.11-15.62-16.75-25.43-16.75-9.19,0-21.12.61-32.07,9.79l-.62.5c-2.72-2.82-4.65-3.44-7.01-4-4.42-1.06-9.06-.19-11.95,4.05l.03.14c-5.52-2.85-12.35-.2-14.58,5.93l.05.43c-2.08-1.54-4.26-2.43-6.28-2.76-7.06-1.16-17.71,5.89-20.71,25.07-2.99,19.18,2.22,43.4,17.2,60.27,14.98,16.88,40.67,21.58,57.15,17.36,16.48-4.22,26.03-13.43,30.93-18.45,8.1-8.29,15.74-19.39,21.01-34.14,2.73-7.65,3.64-17.36-.89-21.32Z"/>
    <path class="cls-1" d="M146.36,46.62c-5.64-4.94-12.3-1.75-16.29,2.49-.67.71-1.34,1.59-2.06,2.52-2.5,3.24-5.6,7.28-11.14,8.45-5.94,1.27-13.51-1.57-16.09-10.8-1.03-3.68-.56-9.58,2.91-13.86,2.76-3.42,6.89-4.98,11.93-4.51,13.2,1.23,23.39,1.37,24.59-8.59.36-3.02-.5-5.87-2.57-8.46-5.35-6.72-17.71-10.05-24.72-10.63-13.08-1.1-24.01,1.95-33.35,9.27-2.46-1.79-4.69-2.59-6.06-2.91-5.3-1.27-9.98.08-13.1,3.65-2.4-1.03-4.97-1.21-7.49-.46-3.14.94-5.75,3.19-7.4,6.28-1.64-.87-3.29-1.44-4.9-1.7-4.53-.74-9.51,1.25-13.65,5.49-3.3,3.38-7.6,9.82-9.41,21.32-3.4,21.74,3.55,46.09,17.71,62.03,12.02,13.55,30.59,19.51,46.28,19.51,4.63,0,9.01-.52,12.9-1.51,17.65-4.52,27.44-14.54,31.61-18.82,9.67-9.9,17-21.71,21.78-35.11,2.81-7.85,4.1-18.74-1.48-23.64h0ZM72.58,13.64c2.67.63,9.29,3.43,13.31,15.57,3.71,11.23,2,23.1-.33,27.57-2.48,4.75-7.24,7.11-12.53,6.41,2.06-4.5,3.16-10.38,3.16-17.43,0-13.14-6.06-24.93-12.28-30.26,2.8-2.7,6.53-2.36,8.67-1.84h0ZM54.05,16.77c2.26-.67,4.62-.17,6.66,1.41,5.66,4.39,11.4,15.26,11.4,27.56,0,6.51-1.17,21.81-12.05,23.3-2.19.3-3.94-.36-5.09-1.01,2.83-4.4,4.19-10.86,4.04-19.31-.26-14.05-4.73-22.72-10.12-27.34,1.13-2.31,2.96-3.96,5.16-4.62ZM144.02,68.83c-4.58,12.82-11.59,24.12-20.84,33.59-3.94,4.04-13.16,13.48-29.72,17.72-15.92,4.08-40.67-.41-55.18-16.75-13.35-15.04-19.91-38.03-16.7-58.57,1.63-10.39,5.39-16.08,8.26-19.02,3.15-3.24,6.94-4.85,10.12-4.32,6.69,1.1,14.62,8.92,14.97,27.35.18,9.5-1.71,16.22-5.47,19.43-2.93,2.5-6.51,2.41-9.01,1.9-2.71-.56-4.95-2.95-6-6.42-1.22-4.03-.49-8.25,1.87-10.74.78-.83.76-2.15-.04-2.95s-2.1-.78-2.88.05c-3.38,3.57-4.5,9.41-2.84,14.88,1.5,4.94,4.89,8.4,9.08,9.27,4.83.99,9.12.04,12.42-2.77.07-.06.13-.14.19-.19,1.44.94,3.75,2.05,6.71,2.05.52,0,1.06-.04,1.62-.12,4.19-.58,7.61-2.71,10.17-6.18,1.36.31,2.71.46,4.02.46,6.03,0,11.45-3.16,14.34-8.73,3.25-6.24,4.36-19.49.59-30.86-1.93-5.85-4.48-9.84-7.04-12.57,8.36-6.3,18.16-8.89,29.89-7.91,7.61.64,17.88,4.05,21.9,9.11,1.36,1.71,1.91,3.44,1.68,5.32-.63,5.23-5.15,6.34-20.18,4.95-8.14-.76-12.89,2.85-15.44,6-4.43,5.48-5.04,12.82-3.68,17.67,3.15,11.26,12.86,15.43,20.83,13.73,6.99-1.49,10.9-6.59,13.5-9.95.68-.89,1.27-1.65,1.79-2.21,1.41-1.49,6.33-6.06,10.72-2.21,3.55,3.11,2.84,11.93.3,19.04h0Z"/>
    <path class="cls-1" d="M63.2,91.82c2.69,0,4.86-2.23,4.86-4.98s-2.18-4.98-4.86-4.98-4.86,2.23-4.86,4.98,2.18,4.98,4.86,4.98Z"/>
    <path class="cls-1" d="M97.85,91.82c2.68,0,4.86-2.23,4.86-4.98s-2.18-4.98-4.86-4.98-4.86,2.23-4.86,4.98,2.18,4.98,4.86,4.98Z"/>
    <path class="cls-1" d="M80.57,110.32c-6.45,0-10.34-4.09-10.5-4.27-.78-.84-.75-2.15.06-2.95.81-.79,2.1-.77,2.88.06.14.14,2.94,2.98,7.57,2.98s7.44-2.93,7.47-2.96c.77-.84,2.05-.89,2.88-.1.82.79.87,2.11.1,2.95-.16.17-3.98,4.28-10.45,4.28h0Z"/>
  </g>
  <path class="cls-1" d="M49.95,133.16c-5.16,0-9.35,4.3-9.35,9.58s4.19,9.58,9.35,9.58,9.35-4.3,9.35-9.58-4.19-9.58-9.35-9.58ZM49.95,147.25c-2.43,0-4.42-2.03-4.42-4.52s1.98-4.52,4.42-4.52,4.42,2.03,4.42,4.52-1.98,4.52-4.42,4.52Z"/>
  <path class="cls-1" d="M89.07,133.16c-5.16,0-9.35,4.3-9.35,9.58s4.19,9.58,9.35,9.58,9.35-4.3,9.35-9.58-4.2-9.58-9.35-9.58ZM93.49,142.73c0,2.49-1.98,4.52-4.41,4.52s-4.42-2.03-4.42-4.52,1.98-4.52,4.42-4.52,4.41,2.03,4.41,4.52Z"/>
  <path class="cls-1" d="M30.55,133.16h-.15c-1.36,0-2.71.32-3.92.94v-5.63c0-.88-.7-1.6-1.56-1.6h-1.81c-.86,0-1.56.72-1.56,1.6v22.25c0,.88.7,1.6,1.56,1.6h1.81c.86,0,1.56-.72,1.56-1.6v-8.33c0-2.14,1.55-3.96,3.54-4.15.13-.01.25-.02.38-.02,2.16,0,3.92,1.8,3.92,4.01v8.49c0,.88.7,1.6,1.56,1.6h1.81c.86,0,1.56-.72,1.56-1.6v-8.29c0-5.03-3.91-9.19-8.7-9.27h0Z"/>
  <path class="cls-3" d="M49.95,150.95c-4.43,0-8.03-3.69-8.03-8.22s3.6-8.22,8.03-8.22,8.03,3.69,8.03,8.22-3.6,8.22-8.03,8.22ZM49.95,136.85c-3.17,0-5.74,2.64-5.74,5.88s2.58,5.88,5.74,5.88,5.74-2.64,5.74-5.88-2.57-5.88-5.74-5.88Z"/>
  <path class="cls-3" d="M89.07,150.95c-4.43,0-8.03-3.69-8.03-8.22s3.6-8.22,8.03-8.22,8.03,3.69,8.03,8.22-3.6,8.22-8.03,8.22ZM89.07,136.85c-3.17,0-5.74,2.64-5.74,5.88s2.57,5.88,5.74,5.88,5.74-2.64,5.74-5.88-2.57-5.88-5.74-5.88Z"/>
  <path class="cls-3" d="M30.53,134.51c-2.09-.03-3.98.81-5.37,2.19v-8.24c0-.13-.11-.24-.23-.24h-1.81c-.13,0-.23.11-.23.24v22.25c0,.13.11.24.23.24h1.81c.13,0,.23-.11.23-.24v-8.33c0-2.79,2.02-5.24,4.74-5.5,3.12-.3,5.75,2.21,5.75,5.34v8.49c0,.13.11.24.23.24h1.81c.13,0,.23-.11.23-.24v-8.29c0-4.24-3.26-7.84-7.4-7.91h0Z"/>
  <path class="cls-1" d="M19.97,144.76c-.25-.36-.65-.58-1.09-.58h-2.5c-.48,0-.93.27-1.16.71-.89,1.67-2.66,2.58-4.5,2.32-1.95-.28-3.53-1.93-3.75-3.94-.15-1.31.24-2.57,1.09-3.54.84-.96,2.04-1.52,3.3-1.52,1.61,0,3.09.9,3.87,2.36.23.44.68.71,1.16.71h2.49c.43,0,.84-.22,1.09-.58.25-.36.31-.83.16-1.24-1.34-3.77-4.87-6.3-8.77-6.3-2.74,0-5.34,1.23-7.12,3.37-1.78,2.14-2.55,4.98-2.11,7.78.63,3.99,4.2,7.48,8.14,7.94.36.04.72.06,1.08.06,3.91,0,7.44-2.53,8.78-6.3.15-.42.09-.88-.16-1.24h0Z"/>
  <path class="cls-3" d="M16.38,145.54c-1.09,2.05-3.34,3.37-5.84,3.01-2.55-.36-4.59-2.5-4.89-5.13-.4-3.55,2.31-6.57,5.7-6.57,2.17,0,4.06,1.24,5.03,3.07h2.49c-1.12-3.15-4.07-5.41-7.53-5.41-4.86,0-8.73,4.45-7.92,9.58.54,3.43,3.61,6.41,6.98,6.8,3.86.45,7.24-1.92,8.47-5.36h-2.5,0Z"/>
  <path class="cls-1" d="M78.49,144.76c-.25-.36-.65-.58-1.09-.58h-2.5c-.48,0-.93.27-1.16.71-.89,1.67-2.66,2.58-4.5,2.32-1.95-.28-3.53-1.93-3.75-3.94-.15-1.31.24-2.57,1.09-3.54.84-.96,2.04-1.52,3.3-1.52,1.61,0,3.09.9,3.87,2.36.23.44.68.71,1.16.71h2.49c.43,0,.84-.22,1.09-.58.25-.36.31-.83.16-1.24-1.34-3.77-4.87-6.3-8.77-6.3-2.74,0-5.34,1.23-7.12,3.37-1.78,2.14-2.55,4.97-2.11,7.78.63,3.99,4.2,7.48,8.14,7.94.36.04.72.06,1.08.06,3.91,0,7.44-2.53,8.78-6.3.15-.42.09-.88-.16-1.24h0Z"/>
  <path class="cls-3" d="M74.91,145.54c-1.09,2.05-3.34,3.37-5.85,3.01-2.56-.36-4.59-2.5-4.89-5.13-.4-3.55,2.31-6.57,5.7-6.57,2.17,0,4.06,1.24,5.03,3.07h2.49c-1.12-3.15-4.07-5.41-7.53-5.41-4.86,0-8.73,4.45-7.92,9.58.54,3.43,3.61,6.41,6.98,6.8,3.86.45,7.24-1.92,8.47-5.36h-2.5,0Z"/>
  <path class="cls-1" d="M131.37,127.49c-5.61-.1-10.2,4.76-10.2,10.5v13.73c0,.27.21.48.47.48h2.41c.26,0,.47-.22.47-.48v-7.03h13.37v7.03c0,.27.21.48.47.48h2.4c.26,0,.47-.22.47-.48v-13.96c0-5.61-4.41-10.18-9.86-10.27h0ZM124.51,141.26v-3.5c0-3.77,3-6.84,6.68-6.84s6.68,3.07,6.68,6.84v3.5h-13.37Z"/>
  <path class="cls-1" d="M154.31,128.17h-9.3c-.39,0-.71.32-.71.73v22.82c0,.27.21.48.47.48h2.4c.26,0,.47-.22.47-.48v-7.03h6.86c4.55,0,8.23-3.88,8.06-8.57-.16-4.47-3.89-7.94-8.25-7.94h0ZM154.51,141.26h-6.86v-9.65h6.86c2.6,0,4.72,2.16,4.72,4.83s-2.12,4.83-4.72,4.83Z"/>
  <path class="cls-1" d="M100.61,151.72v-2.57c0-.11.04-.22.1-.3l13.11-16.7h-12.74c-.26,0-.47-.22-.47-.48v-2.41c0-.27.21-.48.47-.48h16.62c.26,0,.47.22.47.48v2.57c0,.11-.04.22-.1.3l-13.11,16.7h12.74c.26,0,.47.22.47.48v2.41c0,.27-.21.48-.47.48h-16.62c-.26,0-.47-.22-.47-.48h0Z"/>
</svg>