<?xml version="1.0" encoding="UTF-8"?>
<svg id="_レイヤー_1" data-name="レイヤー_1" xmlns="http://www.w3.org/2000/svg" viewBox="0 0 201.77 157.1">
  <defs>
    <style>
      .cls-1 {
        fill: #122939;
      }

      .cls-2 {
        fill: #ffeb00;
      }

      .cls-3 {
        fill: #fff;
      }

      .cls-4 {
        fill: none;
        stroke: #122939;
        stroke-miterlimit: 10;
        stroke-width: 11px;
      }
    </style>
  </defs>
  <g>
    <line class="cls-4" x1="8.76" y1="79.8" x2="176.04" y2="79.8"/>
    <path class="cls-1" d="M199.27,79.8c-10.93,4.06-24.5,10.98-32.91,18.31l6.62-18.31-6.62-18.31c8.41,7.33,21.97,14.25,32.91,18.31Z"/>
  </g>
  <path class="cls-2" d="M139.93,63.5c-3.48-3.05-7.39-.19-9.05,1.57-1.85,1.97-3.95,6.6-9.3,7.74-4.49.96-10.38-.64-12.58-8.03-1.63-5.48,1.47-14.47,11.34-14.27,7.96.16,13.86,1.78,15-4.54,1.23-6.78-10.47-11.23-17.04-11.23-6.16,0-14.16.41-21.5,6.56l-.41.34c-1.82-1.89-3.12-2.3-4.7-2.68-2.96-.71-6.07-.13-8.01,2.71l.02.1c-3.7-1.91-8.28-.14-9.78,3.98l.03.29c-1.4-1.03-2.85-1.63-4.21-1.85-4.73-.78-11.87,3.95-13.88,16.81-2,12.85,1.49,29.09,11.53,40.4,10.04,11.31,27.26,14.47,38.31,11.64,11.04-2.83,17.45-9,20.74-12.37,5.43-5.56,10.55-13,14.09-22.88,1.83-5.13,2.44-11.64-.6-14.29Z"/>
  <path class="cls-1" d="M140.83,62.48c-3.78-3.31-8.25-1.17-10.92,1.67-.45.47-.9,1.06-1.38,1.69-1.67,2.17-3.75,4.88-7.47,5.67-3.98.85-9.05-1.05-10.79-7.24-.69-2.46-.37-6.42,1.95-9.29,1.85-2.29,4.62-3.34,8-3.02,8.85.82,15.68.92,16.48-5.76.24-2.02-.33-3.93-1.72-5.67-3.58-4.51-11.87-6.73-16.57-7.13-8.77-.73-16.1,1.3-22.36,6.21-1.65-1.2-3.14-1.73-4.07-1.95-3.55-.85-6.69.05-8.78,2.45-1.61-.69-3.33-.81-5.02-.31-2.1.63-3.85,2.14-4.96,4.21-1.1-.58-2.21-.97-3.28-1.14-3.04-.5-6.38.84-9.15,3.68-2.21,2.27-5.1,6.58-6.31,14.29-2.28,14.57,2.38,30.9,11.87,41.58,8.06,9.08,20.51,13.08,31.03,13.08,3.1,0,6.04-.35,8.64-1.01,11.83-3.03,18.39-9.75,21.19-12.61,6.48-6.64,11.39-14.55,14.6-23.53,1.88-5.26,2.75-12.56-.99-15.84h0ZM91.37,40.37c1.79.43,6.23,2.3,8.92,10.43,2.49,7.53,1.34,15.48-.22,18.48-1.66,3.18-4.85,4.77-8.4,4.29,1.38-3.01,2.12-6.96,2.12-11.69,0-8.81-4.06-16.71-8.23-20.28,1.88-1.81,4.38-1.58,5.81-1.24h0ZM78.95,42.48c1.51-.45,3.1-.12,4.47.95,3.8,2.94,7.64,10.23,7.64,18.48,0,4.36-.79,14.62-8.08,15.62-1.47.2-2.64-.24-3.41-.68,1.9-2.95,2.81-7.28,2.71-12.95-.17-9.42-3.17-15.23-6.78-18.33.75-1.55,1.99-2.66,3.46-3.1ZM139.26,77.37c-3.07,8.59-7.77,16.17-13.97,22.52-2.64,2.71-8.82,9.04-19.93,11.88-10.67,2.73-27.26-.28-36.99-11.23-8.95-10.08-13.35-25.5-11.2-39.26,1.09-6.97,3.61-10.78,5.54-12.75,2.11-2.17,4.65-3.25,6.79-2.9,4.48.74,9.8,5.98,10.04,18.33.12,6.37-1.15,10.87-3.66,13.02-1.96,1.68-4.37,1.61-6.04,1.27-1.82-.38-3.32-1.98-4.02-4.3-.82-2.7-.33-5.53,1.25-7.2.52-.56.51-1.44-.03-1.98-.54-.54-1.41-.52-1.93.03-2.26,2.4-3.01,6.31-1.9,9.98,1,3.31,3.28,5.63,6.09,6.21,3.24.67,6.12.02,8.33-1.86.05-.04.08-.09.13-.13.96.63,2.51,1.38,4.5,1.38.35,0,.71-.02,1.08-.08,2.81-.39,5.1-1.82,6.82-4.14.91.21,1.82.31,2.7.31,4.04,0,7.67-2.12,9.62-5.85,2.18-4.18,2.92-13.07.4-20.69-1.3-3.92-3-6.59-4.72-8.43,5.61-4.22,12.18-5.96,20.04-5.3,5.1.43,11.98,2.71,14.68,6.11.91,1.14,1.28,2.31,1.13,3.57-.42,3.51-3.45,4.25-13.53,3.32-5.46-.51-8.64,1.91-10.35,4.02-2.97,3.68-3.38,8.59-2.47,11.84,2.11,7.55,8.62,10.34,13.96,9.21,4.68-1,7.31-4.42,9.05-6.67.46-.59.85-1.11,1.2-1.48.94-1,4.24-4.06,7.19-1.48,2.38,2.09,1.91,8,.2,12.76h0Z"/>
  <path class="cls-1" d="M85.08,92.78c1.8,0,3.26-1.49,3.26-3.34s-1.46-3.34-3.26-3.34-3.26,1.49-3.26,3.34,1.46,3.34,3.26,3.34Z"/>
  <path class="cls-1" d="M108.31,92.78c1.8,0,3.26-1.49,3.26-3.34s-1.46-3.34-3.26-3.34-3.26,1.49-3.26,3.34,1.46,3.34,3.26,3.34Z"/>
  <path class="cls-1" d="M96.73,105.18c-4.32,0-6.93-2.74-7.04-2.86-.52-.56-.5-1.44.04-1.98.54-.53,1.41-.52,1.93.04.09.1,1.97,2,5.07,2s4.99-1.97,5.01-1.99c.51-.57,1.38-.59,1.93-.07.55.53.58,1.42.07,1.98-.11.12-2.67,2.87-7,2.87h0Z"/>
  <path class="cls-1" d="M76.2,120.49c-3.46,0-6.27,2.88-6.27,6.42s2.81,6.42,6.27,6.42,6.27-2.88,6.27-6.42-2.81-6.42-6.27-6.42ZM76.2,129.94c-1.63,0-2.96-1.36-2.96-3.03s1.33-3.03,2.96-3.03,2.96,1.36,2.96,3.03-1.33,3.03-2.96,3.03Z"/>
  <path class="cls-1" d="M102.43,120.49c-3.46,0-6.27,2.88-6.27,6.42s2.81,6.42,6.27,6.42,6.27-2.88,6.27-6.42-2.81-6.42-6.27-6.42ZM105.38,126.91c0,1.67-1.33,3.03-2.96,3.03s-2.96-1.36-2.96-3.03,1.33-3.03,2.96-3.03,2.96,1.36,2.96,3.03Z"/>
  <path class="cls-1" d="M63.2,120.49h-.1c-.91,0-1.81.21-2.63.63v-3.78c0-.59-.47-1.07-1.05-1.07h-1.22c-.58,0-1.05.48-1.05,1.07v14.92c0,.59.47,1.07,1.05,1.07h1.22c.58,0,1.05-.48,1.05-1.07v-5.59c0-1.43,1.04-2.65,2.37-2.78.08,0,.17-.01.26-.01,1.45,0,2.63,1.21,2.63,2.69v5.69c0,.59.47,1.07,1.05,1.07h1.22c.58,0,1.05-.48,1.05-1.07v-5.56c0-3.37-2.62-6.16-5.83-6.21h0Z"/>
  <path class="cls-3" d="M76.2,132.42c-2.97,0-5.38-2.47-5.38-5.51s2.41-5.51,5.38-5.51,5.38,2.47,5.38,5.51-2.41,5.51-5.38,5.51ZM76.2,122.97c-2.12,0-3.85,1.77-3.85,3.94s1.73,3.94,3.85,3.94,3.85-1.77,3.85-3.94-1.73-3.94-3.85-3.94Z"/>
  <path class="cls-3" d="M102.43,132.42c-2.97,0-5.38-2.47-5.38-5.51s2.41-5.51,5.38-5.51,5.38,2.47,5.38,5.51-2.41,5.51-5.38,5.51ZM102.43,122.97c-2.12,0-3.85,1.77-3.85,3.94s1.73,3.94,3.85,3.94,3.85-1.77,3.85-3.94-1.73-3.94-3.85-3.94Z"/>
  <path class="cls-3" d="M63.18,121.4c-1.4-.02-2.67.54-3.6,1.47v-5.52c0-.09-.07-.16-.16-.16h-1.22c-.09,0-.16.07-.16.16v14.92c0,.09.07.16.16.16h1.22c.09,0,.16-.07.16-.16v-5.59c0-1.87,1.35-3.51,3.18-3.69,2.09-.2,3.85,1.48,3.85,3.58v5.69c0,.09.07.16.16.16h1.22c.09,0,.16-.07.16-.16v-5.56c0-2.84-2.19-5.25-4.96-5.3h0Z"/>
  <path class="cls-1" d="M56.1,128.28c-.17-.24-.44-.39-.73-.39h-1.68c-.32,0-.62.18-.78.47-.6,1.12-1.78,1.73-3.02,1.55-1.31-.18-2.37-1.3-2.52-2.64-.1-.88.16-1.72.73-2.37.56-.65,1.37-1.02,2.21-1.02,1.08,0,2.07.61,2.6,1.58.16.29.45.47.78.47h1.67c.29,0,.56-.14.73-.39.17-.24.21-.56.11-.83-.9-2.53-3.26-4.22-5.88-4.22-1.84,0-3.58.82-4.77,2.26-1.19,1.43-1.71,3.33-1.41,5.21.42,2.67,2.82,5.01,5.46,5.32.24.03.48.04.72.04,2.62,0,4.99-1.7,5.89-4.22.1-.28.06-.59-.11-.83h0Z"/>
  <path class="cls-3" d="M53.7,128.8c-.73,1.37-2.24,2.26-3.92,2.02-1.71-.24-3.08-1.68-3.28-3.44-.27-2.38,1.55-4.41,3.82-4.41,1.46,0,2.72.83,3.37,2.06h1.67c-.75-2.11-2.73-3.63-5.05-3.63-3.26,0-5.85,2.98-5.31,6.42.36,2.3,2.42,4.3,4.68,4.56,2.59.3,4.86-1.29,5.67-3.59h-1.68,0Z"/>
  <path class="cls-1" d="M95.33,128.28c-.17-.24-.44-.39-.73-.39h-1.68c-.32,0-.62.18-.78.47-.6,1.12-1.78,1.73-3.02,1.55-1.31-.18-2.37-1.3-2.52-2.64-.1-.88.16-1.72.73-2.37.56-.65,1.37-1.02,2.21-1.02,1.08,0,2.07.61,2.59,1.58.16.29.46.47.78.47h1.67c.29,0,.56-.14.73-.39.17-.24.21-.56.11-.83-.9-2.53-3.26-4.22-5.88-4.22-1.84,0-3.58.82-4.77,2.26-1.19,1.43-1.71,3.33-1.41,5.21.42,2.67,2.82,5.01,5.46,5.32.24.03.48.04.72.04,2.62,0,4.99-1.7,5.89-4.22.1-.28.06-.59-.11-.83h0Z"/>
  <path class="cls-3" d="M92.93,128.8c-.73,1.37-2.24,2.26-3.92,2.02-1.71-.24-3.08-1.68-3.28-3.44-.27-2.38,1.55-4.41,3.82-4.41,1.46,0,2.72.83,3.37,2.06h1.67c-.75-2.11-2.73-3.63-5.05-3.63-3.26,0-5.85,2.98-5.31,6.42.36,2.3,2.42,4.3,4.68,4.56,2.59.3,4.86-1.29,5.67-3.59h-1.67,0Z"/>
  <path class="cls-1" d="M130.78,116.69c-3.76-.06-6.84,3.19-6.84,7.04v9.2c0,.18.14.32.32.32h1.61c.17,0,.32-.14.32-.32v-4.71h8.96v4.71c0,.18.14.32.32.32h1.61c.17,0,.32-.14.32-.32v-9.36c0-3.76-2.95-6.82-6.61-6.88h0ZM126.18,125.93v-2.35c0-2.53,2.01-4.59,4.48-4.59s4.48,2.06,4.48,4.59v2.35h-8.96Z"/>
  <path class="cls-1" d="M146.16,117.15h-6.24c-.26,0-.47.22-.47.49v15.3c0,.18.14.32.32.32h1.61c.17,0,.32-.14.32-.32v-4.71h4.6c3.05,0,5.52-2.6,5.4-5.75-.11-2.99-2.61-5.32-5.53-5.32h0ZM146.29,125.92h-4.6v-6.47h4.6c1.74,0,3.16,1.45,3.16,3.24s-1.42,3.24-3.16,3.24Z"/>
  <path class="cls-1" d="M110.16,132.94v-1.73c0-.07.02-.15.07-.2l8.79-11.19h-8.54c-.17,0-.32-.14-.32-.32v-1.61c0-.18.14-.32.32-.32h11.14c.17,0,.32.14.32.32v1.73c0,.07-.02.15-.07.2l-8.79,11.19h8.54c.17,0,.32.14.32.32v1.61c0,.18-.14.32-.32.32h-11.14c-.17,0-.32-.14-.32-.32h0Z"/>
</svg>